<svg width="183" height="42" viewBox="0 0 183 42" fill="none" xmlns="http://www.w3.org/2000/svg">
<path d="M33.0302 15.443C35.8598 13.1311 39.4051 11.8748 43.059 11.8893C46.7129 11.9038 50.248 13.1881 53.0592 15.5223L52.6654 15.9967C49.9642 13.7538 46.5674 12.5198 43.0565 12.5059C39.5457 12.492 36.1392 13.6991 33.4203 15.9205L33.0302 15.443Z" fill="white"/>
<path d="M42.9938 9.65276C44.3406 9.64439 45.4393 10.7295 45.4476 12.0765C45.456 13.4234 44.3709 14.5221 43.024 14.5305C41.6772 14.5388 40.5785 13.4537 40.5702 12.1067C40.5618 10.7598 41.6469 9.66112 42.9938 9.65276Z" fill="white"/>
<path d="M42.9945 9.77607C41.7158 9.78401 40.6855 10.8271 40.6935 12.106C40.7014 13.3848 41.7445 14.4151 43.0233 14.4072C44.3021 14.3992 45.3323 13.3561 45.3243 12.0772L45.4476 12.0764L45.4472 12.1394C45.4224 13.4366 44.3836 14.4884 43.087 14.5293L43.0241 14.5305C41.6772 14.5388 40.5785 13.4537 40.5702 12.1067L40.5706 12.0438C40.5958 10.7257 41.6679 9.66101 42.9938 9.65277L43.0567 9.65317C44.3747 9.67836 45.4394 10.7506 45.4476 12.0764L45.3243 12.0772C45.3164 10.7984 44.2733 9.76814 42.9945 9.77607Z" fill="white"/>
<path d="M38.5982 8.75719C39.097 8.05895 39.7549 7.4895 40.5174 7.09591C41.2798 6.70233 42.1251 6.49596 42.9831 6.49381C43.8412 6.49167 44.6874 6.69385 45.4519 7.08361C46.2163 7.47337 46.877 8.03953 47.3793 8.73526L46.3794 9.45709C45.9918 8.92008 45.4818 8.48306 44.8917 8.18221C44.3017 7.88137 43.6485 7.72531 42.9862 7.72697C42.3239 7.72862 41.6715 7.88796 41.083 8.19175C40.4944 8.49555 39.9866 8.93513 39.6016 9.47408L38.5982 8.75719Z" fill="white"/>
<path d="M36.2524 6.86264C37.0468 5.80585 38.0784 4.9505 39.264 4.3656C40.4496 3.78071 41.756 3.48264 43.078 3.49538C44.3999 3.50813 45.7004 3.83136 46.8745 4.439C48.0486 5.04665 49.0635 5.9217 49.8373 6.99362L48.8375 7.71545C48.1768 6.8002 47.3102 6.05304 46.3077 5.5342C45.3052 5.01537 44.1948 4.73938 43.0661 4.72849C41.9373 4.71761 40.8218 4.97216 39.8095 5.47157C38.7972 5.97098 37.9164 6.70129 37.2381 7.60363L36.2524 6.86264Z" fill="white"/>
<path d="M46.6997 11.0649C49.4922 11.6888 52.0819 13.008 54.2284 14.9002L52.1898 17.2129C50.4329 15.6642 48.3133 14.5844 46.0276 14.0737L46.6997 11.0649Z" fill="white"/>
<path d="M31.8271 14.8448C33.9827 12.9631 36.5788 11.6565 39.3744 11.0463L40.0318 14.0583C37.7437 14.5578 35.6187 15.6273 33.8543 17.1675L31.8271 14.8448Z" fill="white"/>
<path d="M10.7807 20.9901C9.81253 20.4727 8.66399 20.214 7.33444 20.214H2.28882e-05V37.971H4.29178V32.4566H7.20474C8.56273 32.4566 9.73624 32.2055 10.7246 31.7019C11.7129 31.1983 12.4744 30.4894 13.0092 29.5732C13.5439 28.6569 13.8109 27.5866 13.8109 26.3609C13.8109 25.1353 13.5481 24.0706 13.0216 23.1487C12.4959 22.2269 11.7483 21.5069 10.7807 20.9901ZM9.02464 27.7877C8.79924 28.1956 8.46841 28.5119 8.03216 28.7373C7.59591 28.9628 7.05354 29.0758 6.40645 29.0758H4.29109V23.6738H6.40645C7.048 23.6738 7.58828 23.7834 8.028 24.0033C8.46702 24.2232 8.79924 24.5339 9.02534 24.9355C9.25075 25.3371 9.3638 25.813 9.3638 26.3616C9.3638 26.9103 9.25144 27.3806 9.02534 27.7877H9.02464Z" fill="white"/>
<path d="M28.5477 29.2617C29.0852 28.403 29.3537 27.3584 29.3537 26.1272C29.3537 24.896 29.0908 23.8632 28.5644 22.9753C28.0387 22.0882 27.291 21.4063 26.3235 20.9291C25.3553 20.4519 24.2067 20.214 22.8772 20.214H15.5428V37.971H19.8345V31.8934H22.0324L25.279 37.971H29.9605L26.2784 31.2115C27.257 30.7641 28.0137 30.1135 28.5477 29.261V29.2617ZM19.8352 23.6738H21.9506C22.5921 23.6738 23.1324 23.7647 23.5721 23.9471C24.0112 24.1288 24.3434 24.4007 24.5695 24.7621C24.7949 25.1235 24.9079 25.5785 24.9079 26.1279C24.9079 26.6772 24.7956 27.1267 24.5695 27.4763C24.3441 27.8259 24.0132 28.086 23.577 28.2566C23.1407 28.4273 22.5984 28.5126 21.9513 28.5126H19.8359V23.6745L19.8352 23.6738Z" fill="white"/>
<path d="M67.6313 31.2093H67.4232L62.9151 20.2152H57.601V37.9722H61.7797V27.0038H61.9267L66.1921 37.8592H68.8624L73.1278 27.0649H73.2755V37.9722H77.4542V20.2152H72.1394L67.6313 31.2093Z" fill="white"/>
<path d="M85.1042 20.2152L79.1132 37.9722H83.7254L84.8933 34.244H91.0251L92.1958 37.9722H96.808L90.817 20.2152H85.1035H85.1042ZM85.915 30.9839L87.8868 24.6892H88.0255L90.0014 30.9839H85.9143H85.915Z" fill="white"/>
<path d="M95.6137 23.7007H101.006V37.9722H105.237V23.7007H110.621V20.2152H95.6137V23.7007Z" fill="white"/>
<path d="M116.641 20.2152H112.349V37.9722H116.641V20.2152Z" fill="white"/>
<path d="M125.318 24.3676C125.939 23.9458 126.68 23.735 127.541 23.735C128.027 23.735 128.47 23.8029 128.872 23.9389C129.274 24.0749 129.622 24.2698 129.917 24.5243C130.211 24.7789 130.449 25.0848 130.627 25.4434C130.806 25.802 130.925 26.2036 130.983 26.6489H135.317C135.213 25.5856 134.944 24.6402 134.511 23.8134C134.078 22.9865 133.514 22.2887 132.821 21.7193C132.127 21.1498 131.324 20.7163 130.41 20.4187C129.497 20.1211 128.503 19.972 127.428 19.972C125.85 19.972 124.426 20.3244 123.154 21.0298C121.883 21.7352 120.874 22.7667 120.129 24.1248C119.383 25.4829 119.011 27.1393 119.011 29.0926C119.011 31.0459 119.378 32.6939 120.112 34.0521C120.846 35.4102 121.848 36.4437 123.116 37.1519C124.385 37.8601 125.822 38.2139 127.429 38.2139C128.649 38.2139 129.731 38.0287 130.676 37.659C131.621 37.2892 132.423 36.7905 133.082 36.1635C133.741 35.5364 134.26 34.8414 134.638 34.0784C135.017 33.3154 135.244 32.5406 135.319 31.7548L130.984 31.7284C130.909 32.1564 130.775 32.5393 130.581 32.877C130.388 33.2155 130.142 33.5013 129.844 33.7358C129.547 33.9702 129.203 34.1478 128.812 34.2692C128.422 34.3906 127.99 34.4509 127.516 34.4509C126.672 34.4509 125.942 34.2504 125.327 33.8481C124.711 33.4465 124.235 32.8479 123.897 32.053C123.559 31.2581 123.39 30.2711 123.39 29.0919C123.39 27.9127 123.556 26.9937 123.889 26.196C124.221 25.3983 124.698 24.7886 125.319 24.3662L125.318 24.3676Z" fill="white"/>
<path d="M38.9768 41.8668L38.0689 41.4721C37.2117 41.0996 36.3933 40.6286 35.6352 40.073C33.3173 38.3722 31.6958 36.0097 30.9474 33.2414L30.6894 32.287L31.6035 32.0394C31.0896 29.2218 31.6264 26.3426 33.1218 23.9003L32.3581 23.3398L32.9435 22.5422C35.2128 19.4479 38.7139 17.5841 42.5486 17.428L43.537 17.3878L43.5751 18.3339C45.8722 18.4317 48.0534 19.1988 49.9358 20.5806C50.639 21.0966 51.2833 21.6897 51.8514 22.3445C52.9951 23.6624 53.8391 25.2536 54.2927 26.9453C54.6548 28.2972 54.7699 29.7206 54.6333 31.1134L55.5661 31.2875L55.3851 32.2593C55.039 34.1196 54.2913 35.8426 53.1636 37.3803C52.0352 38.9181 50.6161 40.1486 48.9454 41.0365L48.0722 41.5005L47.6262 40.6626C46.339 41.2106 44.947 41.5283 43.5481 41.5879C42.129 41.649 40.6968 41.445 39.3527 40.9949L38.9754 41.8661L38.9768 41.8668ZM38.3082 38.4319L39.2161 38.8266C40.5429 39.403 42.0111 39.6749 43.4634 39.6125C44.8991 39.5507 46.3265 39.163 47.5908 38.4902L48.464 38.0261L48.8677 38.7856C49.9101 38.0996 50.8159 37.2361 51.5684 36.2102C52.3209 35.1843 52.873 34.0613 53.2142 32.8606L52.3688 32.7032L52.5498 31.7314C52.812 30.3233 52.7537 28.8452 52.382 27.4572C52.006 26.0533 51.3055 24.734 50.3574 23.6409C49.8858 23.0971 49.3497 22.6039 48.7657 22.1752C46.9805 20.865 44.8728 20.2206 42.6652 20.3094L41.6768 20.3496L41.6422 19.4902C39.1287 19.8259 36.8413 21.0439 35.1587 22.9424L35.8523 23.4515L35.2669 24.2492C33.5185 26.6325 32.9581 29.6352 33.73 32.4889L33.988 33.4433L33.1571 33.6687C33.8729 35.5942 35.1199 37.2437 36.8039 38.4798C37.1749 38.7524 37.564 39.0007 37.9656 39.2219L38.3068 38.4333L38.3082 38.4319Z" fill="#F9F9F9"/>
<path d="M43.0542 37.9018C47.4386 37.9018 50.9927 34.3472 50.9927 29.9625C50.9927 25.5777 47.4386 22.0231 43.0542 22.0231C38.6699 22.0231 35.1157 25.5777 35.1157 29.9625C35.1157 34.3472 38.6699 37.9018 43.0542 37.9018Z" fill="#F9F9F9"/>
<path d="M37.4523 37.5957C35.6511 36.2737 34.4554 34.4369 33.9145 32.4372L32.7763 32.7459L31.9024 32.9831C32.562 35.4219 34.0227 37.663 36.2206 39.2757C36.9328 39.7987 37.6854 40.2274 38.4628 40.5652L38.8228 39.7342L39.2916 38.6514C38.6543 38.3747 38.0363 38.0251 37.4523 37.5964V37.5957Z" fill="#0074FF"/>
<path d="M42.6256 19.3211L42.6728 20.4995C44.7417 20.4156 46.8529 21.0045 48.6548 22.3266C49.2387 22.7552 49.7575 23.2394 50.2125 23.7645L51.1044 22.9925C50.5926 22.4022 50.0072 21.8591 49.3504 21.3777C47.3252 19.8912 44.9511 19.2267 42.6249 19.3211H42.6256Z" fill="#0074FF"/>
<path d="M53.5222 31.9127C54.1068 28.7698 53.2496 25.4661 51.1044 22.9933L50.2125 23.7653C49.7568 23.2402 49.2387 22.756 48.6547 22.3274C46.8536 21.0053 44.7424 20.4164 42.6735 20.5004L42.6263 19.3219L42.5902 18.4167C39.2015 18.5547 35.9057 20.1778 33.7418 23.1278L34.4721 23.6633C32.4774 26.3824 31.9621 29.7291 32.7777 32.7464L33.9159 32.4378C34.4562 34.4368 35.6519 36.2743 37.4537 37.5963C38.0377 38.025 38.6557 38.3739 39.293 38.6513L38.8242 39.7341C41.8266 41.0388 45.2355 40.8647 48.0576 39.3644L48.4834 40.1641C49.969 39.3741 51.3055 38.2449 52.3688 36.7959C53.432 35.3469 54.1075 33.7335 54.4155 32.0785L53.5249 31.9127H53.5222ZM38.3574 36.3623C36.8469 35.2539 35.8447 33.7141 35.3918 32.0375C34.7835 29.7874 35.1664 27.2924 36.6534 25.2649C38.141 23.2374 40.4055 22.1235 42.7345 22.0291C44.4691 21.9584 46.2391 22.4529 47.7496 23.5607C48.2393 23.92 48.6742 24.3264 49.0556 24.7662C50.655 26.6099 51.2958 29.0723 50.8603 31.416C50.6487 32.5529 50.184 33.662 49.4537 34.6574C48.7234 35.6535 47.8051 36.4289 46.7842 36.972C44.6799 38.0909 42.1387 38.2185 39.8999 37.246C39.3659 37.0137 38.8478 36.721 38.3581 36.3617L38.3574 36.3623Z" fill="#071223"/>
<path d="M49.0549 24.767L47.5506 26.0689C48.7491 27.4506 49.2297 29.2957 48.903 31.052C48.7442 31.9037 48.3967 32.7347 47.8488 33.4811C47.3016 34.2274 46.6136 34.8087 45.8479 35.2158L46.7828 36.9728C47.8037 36.4297 48.722 35.6542 49.4523 34.6582C50.1826 33.6621 50.6473 32.5537 50.8589 31.4168C51.2951 29.0737 50.6543 26.6113 49.0542 24.767H49.0549Z" fill="#0074FF"/>
<path d="M35.3911 32.0374L37.3115 31.5172C36.8559 29.831 37.1423 27.9616 38.2569 26.4419L36.6526 25.2648C35.165 27.2923 34.7821 29.7873 35.3911 32.0374Z" fill="#EA4B3B"/>
<path d="M45.5885 27.7631C45.4269 27.5765 45.2424 27.4045 45.035 27.2526C44.3955 26.783 43.6458 26.5742 42.9106 26.604C41.9244 26.6442 40.9652 27.1159 40.3347 27.9746C39.7043 28.8333 39.5427 29.8904 39.8 30.8428C39.9921 31.5524 40.4166 32.2051 41.056 32.6747C41.2634 32.8266 41.4826 32.9508 41.7094 33.0492C42.6575 33.4613 43.7339 33.4072 44.6251 32.9334C45.0579 32.7031 45.4463 32.375 45.7556 31.9533C46.0649 31.5316 46.2619 31.062 46.3514 30.5806C46.5359 29.588 46.2647 28.5448 45.5871 27.7638L45.5885 27.7631Z" fill="#B7E00B"/>
<path d="M181.109 24.5898C181.012 23.618 180.583 22.8451 179.822 22.271C179.06 21.697 178.103 21.41 176.949 21.41C176.136 21.41 175.42 21.5493 174.801 21.8278C174.187 22.1062 173.704 22.4927 173.352 22.9871C173.005 23.4759 172.832 24.0329 172.832 24.658C172.832 25.1184 172.931 25.5219 173.13 25.8686C173.329 26.2153 173.596 26.5136 173.931 26.7637C174.272 27.0081 174.647 27.2184 175.056 27.3945C175.471 27.5707 175.889 27.7185 176.31 27.8378L178.151 28.3664C178.708 28.5198 179.265 28.7159 179.822 28.9546C180.379 29.1933 180.887 29.4945 181.348 29.8583C181.814 30.2163 182.186 30.6568 182.464 31.1796C182.748 31.6968 182.89 32.3191 182.89 33.0466C182.89 33.9786 182.649 34.8169 182.166 35.5614C181.683 36.306 180.99 36.897 180.086 37.3346C179.182 37.7666 178.1 37.9825 176.838 37.9825C175.65 37.9825 174.619 37.7865 173.744 37.3943C172.868 36.9965 172.181 36.448 171.681 35.749C171.181 35.05 170.899 34.2401 170.837 33.3194H172.474C172.53 34.0071 172.758 34.5896 173.155 35.067C173.553 35.5444 174.07 35.9081 174.707 36.1582C175.343 36.4026 176.054 36.5248 176.838 36.5248C177.708 36.5248 178.48 36.3798 179.157 36.09C179.839 35.7945 180.373 35.3853 180.759 34.8624C181.151 34.3339 181.348 33.7201 181.348 33.021C181.348 32.4299 181.194 31.9355 180.887 31.5377C180.58 31.1342 180.151 30.796 179.6 30.5232C179.054 30.2504 178.421 30.0089 177.699 29.7986L175.611 29.1848C174.241 28.7756 173.178 28.2101 172.422 27.4883C171.667 26.7665 171.289 25.8458 171.289 24.7262C171.289 23.7885 171.539 22.9644 172.039 22.254C172.545 21.5379 173.227 20.9809 174.085 20.5831C174.948 20.1796 175.917 19.9778 176.992 19.9778C178.077 19.9778 179.037 20.1768 179.873 20.5746C180.708 20.9724 181.37 21.5209 181.859 22.2199C182.353 22.9133 182.618 23.7032 182.652 24.5898H181.109Z" fill="white"/>
<path d="M156.626 37.684V20.2249H162.261C163.5 20.2249 164.534 20.4636 165.364 20.941C166.2 21.4127 166.827 22.0549 167.248 22.8676C167.674 23.6803 167.887 24.5953 167.887 25.6126C167.887 26.6299 167.677 27.5478 167.257 28.3662C166.836 29.1789 166.211 29.824 165.381 30.3013C164.551 30.7731 163.52 31.0089 162.287 31.0089H157.854V29.5767H162.244C163.159 29.5767 163.918 29.4062 164.52 29.0652C165.123 28.7185 165.572 28.2468 165.867 27.6501C166.168 27.0533 166.319 26.3742 166.319 25.6126C166.319 24.8511 166.168 24.1719 165.867 23.5752C165.572 22.9784 165.12 22.5095 164.512 22.1685C163.909 21.8275 163.145 21.657 162.219 21.657H158.221V37.684H156.626Z" fill="white"/>
<path d="M150.913 25.6816C150.754 25.1019 150.521 24.5592 150.214 24.0534C149.907 23.5419 149.526 23.0957 149.072 22.7149C148.623 22.3285 148.103 22.0273 147.512 21.8113C146.926 21.5953 146.273 21.4874 145.551 21.4874C144.414 21.4874 143.397 21.7829 142.499 22.3739C141.601 22.965 140.891 23.8175 140.368 24.9314C139.851 26.0454 139.592 27.3866 139.592 28.9552C139.592 30.5181 139.854 31.8565 140.377 32.9705C140.899 34.0844 141.615 34.9397 142.525 35.5365C143.44 36.1275 144.485 36.4231 145.662 36.4231C146.736 36.4231 147.685 36.1844 148.509 35.707C149.333 35.2296 149.975 34.5476 150.436 33.661C150.902 32.7744 151.129 31.7201 151.117 30.4982L151.629 30.6602H146.037V29.228H152.669V30.6602C152.669 32.1492 152.368 33.4365 151.765 34.522C151.163 35.6075 150.336 36.4458 149.285 37.0369C148.233 37.6279 147.026 37.9235 145.662 37.9235C144.139 37.9235 142.806 37.5569 141.664 36.8237C140.522 36.0849 139.632 35.0449 138.996 33.7036C138.365 32.3567 138.049 30.7739 138.049 28.9552C138.049 27.5855 138.231 26.3494 138.595 25.2469C138.959 24.1443 139.473 23.2009 140.138 22.4166C140.809 21.6323 141.601 21.0327 142.516 20.6178C143.431 20.1972 144.443 19.987 145.551 19.987C146.506 19.987 147.378 20.1376 148.168 20.4388C148.964 20.74 149.663 21.1549 150.265 21.6834C150.873 22.2063 151.37 22.8116 151.757 23.4992C152.149 24.1812 152.413 24.9087 152.55 25.6816H150.913Z" fill="white"/>
</svg>
