<svg width="2146" height="1019" viewBox="0 0 2146 1019" fill="none" xmlns="http://www.w3.org/2000/svg">
<path d="M174.98 340.75C159.27 332.36 140.62 328.16 119.05 328.16H0V616.35H69.66V526.85H116.94C138.98 526.85 158.03 522.77 174.07 514.61C190.11 506.45 202.47 494.93 211.15 480.06C219.83 465.19 224.17 447.81 224.17 427.92C224.17 408.03 219.9 390.75 211.37 375.79C202.83 360.83 190.71 349.15 174.99 340.75H174.98ZM146.49 451.07C142.83 457.68 137.46 462.82 130.38 466.48C123.3 470.14 114.5 471.97 104 471.97H69.67V384.3H104C114.41 384.3 123.18 386.08 130.31 389.65C137.44 393.22 142.83 398.26 146.49 404.78C150.15 411.3 151.98 419.02 151.98 427.93C151.98 436.84 150.15 444.47 146.49 451.08V451.07Z" fill="white"/>
<path d="M463.36 475C472.08 461.07 476.45 444.11 476.45 424.13C476.45 404.15 472.18 387.38 463.64 372.98C455.1 358.58 442.98 347.51 427.26 339.77C411.54 332.03 392.9 328.16 371.33 328.16H252.28V616.35H321.93V517.71H357.61L410.3 616.35H486.29L426.52 506.65C442.41 499.39 454.69 488.84 463.35 475H463.36ZM398.78 446.01C395.12 451.69 389.75 455.91 382.67 458.67C375.59 461.44 366.79 462.82 356.29 462.82H321.95V384.3H356.29C366.7 384.3 375.47 385.78 382.6 388.73C389.73 391.69 395.12 396.1 398.78 401.96C402.44 407.82 404.27 415.21 404.27 424.12C404.27 433.03 402.44 440.33 398.78 446V446.01Z" fill="white"/>
<path d="M1147.7 439.32H1150.09V616.35H1217.91V328.16H1131.65L1058.48 506.59H1055.1L981.93 328.16H895.67V616.35H963.5V438.34H965.89L1035.12 614.52H1078.46L1147.7 439.32Z" fill="white"/>
<path d="M1338.12 328.16L1240.88 616.35H1315.74L1334.7 555.84H1434.22L1453.22 616.35H1528.08L1430.85 328.16H1338.12ZM1351.28 502.93L1383.29 400.77H1385.54L1417.61 502.93H1351.28Z" fill="white"/>
<path d="M1580.38 616.35H1649.05V384.73H1736.44V328.16H1492.85V384.73H1580.38V616.35Z" fill="white"/>
<path d="M1846.03 328.16H1776.37V616.35H1846.03V328.16Z" fill="white"/>
<path d="M2068.31 533.67C2065.17 539.16 2061.18 543.8 2056.35 547.6C2051.52 551.4 2045.94 554.28 2039.61 556.25C2033.28 558.22 2026.26 559.21 2018.57 559.21C2004.87 559.21 1993.03 555.95 1983.04 549.43C1973.05 542.91 1965.31 533.2 1959.82 520.3C1954.33 507.4 1951.59 491.38 1951.59 472.25C1951.59 453.12 1954.29 438.2 1959.68 425.25C1965.07 412.3 1972.81 402.41 1982.9 395.56C1992.98 388.71 2005.01 385.29 2018.99 385.29C2026.87 385.29 2034.07 386.39 2040.59 388.6C2047.11 390.81 2052.76 393.97 2057.55 398.1C2062.33 402.23 2066.18 407.2 2069.09 413.02C2072 418.84 2073.92 425.36 2074.86 432.58H2145.22C2143.53 415.32 2139.17 399.98 2132.13 386.57C2125.09 373.16 2115.95 361.83 2104.69 352.59C2093.43 343.35 2080.39 336.32 2065.57 331.48C2050.75 326.65 2034.61 324.23 2017.16 324.23C1991.55 324.23 1968.42 329.95 1947.79 341.4C1927.15 352.85 1910.78 369.59 1898.68 391.64C1886.58 413.69 1880.53 440.56 1880.53 472.27C1880.53 503.98 1886.49 530.72 1898.4 552.76C1910.31 574.81 1926.56 591.58 1947.16 603.07C1967.75 614.56 1991.09 620.31 2017.17 620.31C2036.96 620.31 2054.53 617.31 2069.87 611.3C2085.21 605.3 2098.22 597.21 2108.92 587.03C2119.61 576.85 2128.03 565.57 2134.18 553.19C2140.32 540.81 2144.01 528.24 2145.23 515.48L2074.87 515.06C2073.65 522 2071.47 528.22 2068.33 533.7L2068.31 533.67Z" fill="white"/>
<path d="M618.18 654.27L604.4 648.28C591.4 642.63 578.98 635.49 567.49 627.06C532.33 601.26 507.74 565.43 496.39 523.45L492.48 508.98L506.34 505.22C498.54 462.49 506.69 418.81 529.37 381.77L517.79 373.27L526.66 361.18C561.09 314.25 614.2 285.97 672.36 283.61L687.35 283L687.93 297.35C722.77 298.83 755.86 310.47 784.41 331.42C795.07 339.24 804.85 348.25 813.47 358.18C830.82 378.17 843.62 402.3 850.5 427.96C856 448.47 857.74 470.05 855.67 491.18L869.82 493.82L867.08 508.56C861.83 536.78 850.49 562.91 833.38 586.24C816.27 609.56 794.74 628.22 769.4 641.7L756.16 648.74L749.4 636.03C729.87 644.34 708.76 649.16 687.54 650.07C666.02 650.99 644.29 647.9 623.9 641.07L618.18 654.28V654.27ZM608.04 602.18L621.81 608.17C641.94 616.92 664.21 621.04 686.24 620.09C708.02 619.15 729.67 613.27 748.85 603.07L762.09 596.03L768.22 607.54C784.03 597.13 797.77 584.04 809.19 568.48C820.61 552.92 828.97 535.88 834.16 517.68L821.34 515.29L824.08 500.55C828.05 479.19 827.171 456.78 821.53 435.72C815.83 414.43 805.21 394.42 790.82 377.84C783.66 369.59 775.54 362.11 766.67 355.61C739.59 335.74 707.62 325.97 674.14 327.31L659.15 327.92L658.63 314.88C620.5 319.98 585.8 338.45 560.29 367.24L570.81 374.96L561.94 387.05C535.42 423.19 526.92 468.74 538.63 512.02L542.55 526.49L529.95 529.9C540.8 559.1 559.72 584.12 585.27 602.86C590.9 606.99 596.8 610.76 602.9 614.12L608.08 602.16L608.04 602.18Z" fill="#F9F9F9"/>
<path d="M680.04 594.13C746.546 594.13 800.46 540.216 800.46 473.71C800.46 407.204 746.546 353.29 680.04 353.29C613.534 353.29 559.62 407.204 559.62 473.71C559.62 540.216 613.534 594.13 680.04 594.13Z" fill="#F9F9F9"/>
<path d="M595.05 589.5C567.73 569.45 549.59 541.59 541.39 511.26L524.12 515.94L510.86 519.53C520.86 556.52 543.02 590.51 576.36 614.97C587.17 622.9 598.58 629.41 610.38 634.53L615.84 621.92L622.95 605.49C613.28 601.29 603.91 595.99 595.05 589.49V589.5Z" fill="#0074FF"/>
<path d="M673.531 312.32L674.25 330.19C705.64 328.91 737.66 337.85 764.98 357.9C773.84 364.4 781.7 371.75 788.61 379.71L802.141 368C794.371 359.05 785.5 350.81 775.54 343.5C744.82 320.96 708.811 310.88 673.521 312.31L673.531 312.32Z" fill="#0074FF"/>
<path d="M838.821 503.29C847.691 455.62 834.691 405.51 802.141 368.01L788.611 379.72C781.701 371.76 773.841 364.41 764.981 357.91C737.661 337.86 705.631 328.92 674.251 330.2L673.531 312.33L672.981 298.6C621.581 300.69 571.591 325.31 538.761 370.06L549.831 378.19C519.571 419.43 511.751 470.19 524.131 515.95L541.401 511.27C549.601 541.59 567.741 569.46 595.061 589.51C603.921 596.01 613.291 601.31 622.961 605.51L615.851 621.94C661.391 641.73 713.101 639.09 755.911 616.33L762.371 628.46C784.911 616.47 805.171 599.35 821.301 577.37C837.431 555.39 847.681 530.92 852.351 505.82L838.841 503.3L838.821 503.29ZM608.791 570.78C585.881 553.97 570.681 530.61 563.801 505.19C554.571 471.07 560.381 433.22 582.941 402.47C605.501 371.72 639.861 354.83 675.181 353.39C701.491 352.32 728.341 359.81 751.251 376.62C758.681 382.07 765.271 388.23 771.061 394.91C795.331 422.88 805.041 460.22 798.431 495.77C795.221 513.02 788.181 529.83 777.091 544.94C766.011 560.04 752.081 571.81 736.591 580.05C704.671 597.02 666.131 598.96 632.171 584.2C624.061 580.68 616.211 576.24 608.781 570.79L608.791 570.78Z" fill="#071223"/>
<path d="M771.06 394.91L748.24 414.66C766.42 435.62 773.71 463.6 768.75 490.24C766.35 503.16 761.07 515.77 752.76 527.08C744.46 538.4 734.02 547.22 722.41 553.39L736.59 580.04C752.08 571.8 766.01 560.04 777.09 544.93C788.17 529.83 795.22 513.01 798.43 495.76C805.04 460.22 795.32 422.87 771.06 394.9V394.91Z" fill="#0074FF"/>
<path d="M563.801 505.19L592.931 497.3C586.011 471.73 590.361 443.37 607.271 420.33L582.941 402.48C560.381 433.23 554.571 471.07 563.801 505.2V505.19Z" fill="#EA4B3B"/>
<path d="M718.47 440.35C716.02 437.52 713.22 434.91 710.08 432.6C700.38 425.48 689.01 422.31 677.86 422.76C662.9 423.37 648.35 430.52 638.79 443.55C629.23 456.58 626.77 472.6 630.68 487.06C633.59 497.83 640.03 507.72 649.74 514.84C652.89 517.15 656.21 519.03 659.65 520.52C674.03 526.77 690.36 525.95 703.88 518.76C710.44 515.27 716.34 510.29 721.03 503.89C725.72 497.49 728.71 490.37 730.07 483.07C732.87 468.02 728.75 452.2 718.48 440.35H718.47Z" fill="#B7E00B"/>
<path d="M1982.22 733.5C1999.37 733.5 2014.57 736.644 2027.8 742.945C2041.03 749.243 2051.52 757.931 2059.27 769.013C2067.12 780.013 2071.31 792.547 2071.85 806.601L2071.87 807.12H2046.6L2046.55 806.67C2045.05 791.503 2038.36 779.46 2026.48 770.508C2014.59 761.548 1999.63 757.051 1981.55 757.051C1968.81 757.051 1957.6 759.234 1947.92 763.585C1938.33 767.937 1930.8 773.968 1925.31 781.673C1919.91 789.281 1917.21 797.949 1917.21 807.694C1917.21 814.869 1918.76 821.134 1921.84 826.506C1924.94 831.902 1929.1 836.55 1934.33 840.448H1934.33C1939.66 844.272 1945.53 847.563 1951.94 850.322C1958.46 853.089 1965.01 855.409 1971.62 857.282H1971.62L2000.61 865.604H2000.61C2009.4 868.027 2018.19 871.121 2026.98 874.888C2035.79 878.663 2043.84 883.428 2051.12 889.184H2051.12C2058.51 894.863 2064.42 901.85 2068.83 910.142L2069.25 910.918C2073.49 918.993 2075.61 928.62 2075.61 939.779C2075.61 954.547 2071.78 967.842 2064.12 979.65C2056.45 991.46 2045.46 1000.82 2031.16 1007.75L2031.16 1007.75C2016.85 1014.59 1999.72 1018 1979.8 1018C1961.04 1018 1944.73 1014.9 1930.87 1008.69L1930.87 1008.69C1917.02 1002.4 1906.12 993.709 1898.18 982.622C1890.25 971.534 1885.79 958.691 1884.8 944.108L1884.77 943.574H1911.53L1911.57 944.033C1912.46 954.771 1916.01 963.843 1922.2 971.272C1928.4 978.719 1936.47 984.399 1946.43 988.309H1946.42C1956.38 992.131 1967.5 994.046 1979.8 994.046C1993.44 994.046 2005.54 991.774 2016.11 987.241C2026.78 982.618 2035.12 976.226 2041.15 968.073H2041.15C2047.25 959.842 2050.31 950.283 2050.31 939.376C2050.31 930.16 2047.92 922.487 2043.17 916.325L2043.16 916.322C2038.39 910.042 2031.7 904.762 2023.07 900.494L2023.07 900.493C2014.51 896.214 2004.56 892.421 1993.22 889.116H1993.22L1960.33 879.451H1960.33V879.45C1938.71 872.992 1921.9 864.057 1909.92 852.621C1897.91 841.154 1891.92 826.523 1891.92 808.768C1891.92 793.908 1895.88 780.83 1903.82 769.553L1903.82 769.552C1911.84 758.199 1922.65 749.375 1936.23 743.077L1937.52 742.488C1950.87 736.493 1965.77 733.5 1982.22 733.5Z" fill="white" stroke="white"/>
<path d="M1750.26 737.393L1752.09 737.403C1770.85 737.632 1786.62 741.399 1799.37 748.732C1812.6 756.205 1822.56 766.386 1829.23 779.272C1835.98 792.148 1839.36 806.637 1839.36 822.728C1839.36 838.817 1836.03 853.349 1829.37 866.313V866.314C1822.7 879.2 1812.79 889.427 1799.64 896.989L1799.64 896.99C1786.48 904.471 1770.15 908.197 1750.67 908.197H1687.14V1013.3H1661.04V737.393H1750.26ZM1687.14 884.646H1750C1764.34 884.646 1776.2 881.972 1785.59 876.657C1794.99 871.246 1801.99 863.89 1806.6 854.588L1806.6 854.584C1811.3 845.267 1813.66 834.652 1813.66 822.728C1813.66 810.803 1811.3 800.188 1806.6 790.871L1806.6 790.868C1801.99 781.567 1794.95 774.256 1785.46 768.934L1785.45 768.933C1776.06 763.618 1764.12 760.943 1749.59 760.943H1687.14V884.646Z" fill="white" stroke="white"/>
<path d="M1487.13 733.634C1502.22 733.634 1516.02 736.014 1528.52 740.781C1541.1 745.543 1552.16 752.105 1561.69 760.467H1561.69C1571.31 768.736 1579.17 778.311 1585.29 789.189L1585.86 790.202C1591.75 800.698 1595.74 811.869 1597.83 823.715L1597.93 824.302H1571.18L1571.08 823.934C1568.59 814.85 1564.94 806.346 1560.13 798.422L1560.13 798.42C1555.33 790.414 1549.37 783.432 1542.25 777.472L1542.25 777.468C1535.22 771.424 1527.09 766.711 1517.83 763.329H1517.83C1508.68 759.952 1498.45 758.259 1487.13 758.259C1469.33 758.259 1453.41 762.887 1439.35 772.137C1425.3 781.386 1414.17 794.731 1405.97 812.198L1405.97 812.199C1397.87 829.658 1393.8 850.701 1393.8 875.347C1393.8 899.902 1397.91 920.901 1406.11 938.359C1414.31 955.826 1425.52 969.218 1439.75 978.557H1439.75C1454.07 987.806 1470.44 992.435 1488.88 992.435C1505.71 992.435 1520.57 988.694 1533.46 981.227C1546.35 973.76 1556.4 963.093 1563.6 949.213L1563.61 949.211C1570.51 936.078 1574.07 920.578 1574.28 902.694H1494.28V879.143H1599.72V902.194C1599.72 925.707 1594.96 946.063 1585.43 963.243C1575.9 980.414 1562.81 993.682 1546.17 1003.04C1529.53 1012.39 1510.43 1017.06 1488.88 1017.06C1464.81 1017.06 1443.73 1011.27 1425.65 999.665L1425.65 999.664C1407.58 987.976 1393.51 971.525 1383.46 950.329L1383.46 950.327C1373.48 929.039 1368.51 904.041 1368.51 875.347C1368.51 853.736 1371.38 834.219 1377.12 816.799C1382.87 799.385 1391 784.471 1401.51 772.067L1401.51 772.066C1412.12 759.663 1424.66 750.176 1439.14 743.613C1453.62 736.957 1469.62 733.634 1487.13 733.634Z" fill="white" stroke="white"/>
<path d="M517.708 250.451C563.601 212.957 621.102 192.583 680.363 192.818C739.625 193.053 796.961 213.881 842.555 251.738L836.168 259.431C792.358 223.057 737.265 203.044 680.323 202.818C623.381 202.593 568.132 222.169 524.036 258.195L517.708 250.451Z" fill="white"/>
<path d="M679.311 156.549C701.16 156.413 718.982 174.015 719.117 195.863C719.253 217.712 701.651 235.534 679.803 235.669C657.954 235.805 640.132 218.203 639.997 196.355C639.861 174.506 657.463 156.684 679.311 156.549Z" fill="white"/>
<path d="M679.324 158.549C658.58 158.678 641.868 175.598 641.997 196.342C642.125 217.086 659.046 233.798 679.791 233.669C700.534 233.54 717.246 216.619 717.117 195.875L719.117 195.863L719.111 196.885C718.708 217.925 701.858 234.987 680.823 235.65L679.803 235.669C657.954 235.805 640.132 218.203 639.997 196.354L640.003 195.334C640.412 173.954 657.804 156.682 679.312 156.549L680.332 156.555C701.712 156.964 718.983 174.356 719.117 195.863L717.117 195.875C716.988 175.132 700.068 158.42 679.324 158.549Z" fill="white"/>
<path d="M608.014 142.022C616.104 130.698 626.773 121.462 639.14 115.079C651.506 108.696 665.215 105.349 679.132 105.314C693.049 105.28 706.774 108.558 719.172 114.88C731.57 121.201 742.285 130.383 750.432 141.666L734.216 153.373C727.928 144.663 719.657 137.576 710.087 132.697C700.517 127.818 689.923 125.287 679.182 125.313C668.44 125.34 657.859 127.925 648.313 132.851C638.768 137.778 630.532 144.907 624.288 153.648L608.014 142.022Z" fill="white"/>
<path d="M569.968 111.298C582.851 94.159 599.583 80.2869 618.812 70.8011C638.041 61.3154 659.23 56.4813 680.67 56.6879C702.11 56.8946 723.202 62.1368 742.245 71.9916C761.287 81.8464 777.748 96.0379 790.299 113.422L774.083 125.129C763.367 110.285 749.312 98.1679 733.052 89.7535C716.793 81.3391 698.784 76.863 680.477 76.6865C662.17 76.51 644.078 80.6382 627.66 88.7377C611.241 96.8371 596.955 108.681 585.954 123.315L569.968 111.298Z" fill="white"/>
<path d="M739.411 179.443C784.703 189.561 826.705 210.956 861.518 241.644L828.455 279.152C799.96 254.034 765.581 236.522 728.51 228.24L739.411 179.443Z" fill="white"/>
<path d="M498.193 240.757C533.156 210.24 575.262 189.049 620.602 179.153L631.265 228.003C594.154 236.103 559.69 253.448 531.073 278.427L498.193 240.757Z" fill="white"/>
</svg>
